<?xml version="1.0" standalone="no"?>
<!DOCTYPE svg PUBLIC "-//W3C//DTD SVG 20010904//EN"
 "http://www.w3.org/TR/2001/REC-SVG-20010904/DTD/svg10.dtd">
<svg version="1.0" xmlns="http://www.w3.org/2000/svg"
 width="387.000000pt" height="387.000000pt" viewBox="0 0 387.000000 387.000000"
 preserveAspectRatio="xMidYMid meet">
<metadata>
Created by potrace 1.11, written by Peter Selinger 2001-2013
</metadata>
<g transform="translate(0.000000,387.000000) scale(0.100000,-0.100000)"
fill="#000000" stroke="none">
<path d="M320 3866 c0 -10 28 -13 41 -5 10 6 7 9 -13 9 -16 0 -28 -2 -28 -4z"/>
<path d="M1405 3846 c-13 -13 -29 -43 -35 -67 -15 -55 -8 -278 11 -332 18 -54
54 -87 96 -87 45 0 67 12 91 53 38 66 23 327 -25 407 -31 53 -98 66 -138 26z"/>
<path d="M1149 3747 c-61 -46 -84 -277 -36 -351 37 -56 133 -36 161 34 15 37
22 179 12 225 -2 11 -5 23 -5 27 -1 4 -15 23 -32 43 -33 37 -70 45 -100 22z"/>
<path d="M909 3666 c-43 -22 -63 -62 -67 -137 -7 -121 32 -185 108 -177 65 6
94 94 70 209 -20 92 -60 131 -111 105z"/>
<path d="M671 3517 c-29 -60 -29 -164 0 -201 42 -54 117 -13 121 67 5 121 -14
169 -69 175 -27 3 -33 -2 -52 -41z"/>
<path d="M494 3379 c-28 -32 -27 -150 2 -179 44 -45 94 1 94 87 0 94 -50 142
-96 92z"/>
<path d="M2287 3381 c-41 -21 -65 -71 -81 -168 -31 -198 10 -333 99 -333 32 0
73 30 91 67 24 50 24 52 31 174 11 212 -41 309 -140 260z"/>
<path d="M2540 3258 c-32 -35 -49 -104 -45 -188 3 -86 22 -140 56 -164 33 -23
92 -21 114 4 58 64 45 289 -20 354 -24 24 -80 20 -105 -6z"/>
<path d="M1109 3246 c-2 -2 -24 -5 -49 -7 -25 -2 -55 -9 -67 -17 -12 -7 -26
-13 -30 -13 -20 2 -51 -14 -89 -45 -23 -19 -44 -34 -49 -34 -4 0 -16 -12 -27
-26 -12 -14 -27 -23 -35 -20 -8 3 -12 2 -9 -2 3 -5 -4 -15 -15 -22 -10 -8 -19
-20 -19 -27 0 -6 -8 -17 -17 -22 -10 -6 -14 -11 -10 -11 4 0 -1 -9 -11 -20
-10 -11 -29 -40 -41 -65 -12 -25 -28 -45 -36 -45 -8 0 -11 -7 -8 -20 3 -11 -4
-38 -16 -60 -12 -23 -24 -57 -27 -77 -9 -56 -13 -72 -18 -81 -3 -5 -6 -29 -7
-55 -2 -26 -6 -47 -9 -47 -4 0 -6 -71 -5 -157 1 -87 3 -158 4 -158 1 0 4 -18
7 -40 2 -22 8 -65 14 -95 6 -30 12 -65 13 -77 2 -12 6 -26 10 -29 4 -4 7 -21
7 -39 0 -17 4 -35 9 -40 5 -6 11 -23 14 -40 2 -16 9 -43 16 -60 7 -16 24 -59
37 -95 45 -115 124 -283 137 -288 4 -2 7 -10 7 -17 0 -8 14 -34 30 -58 17 -25
30 -48 30 -51 0 -4 9 -16 20 -28 11 -12 20 -28 20 -35 0 -11 19 -36 73 -94 9
-10 15 -19 12 -19 -7 0 10 -21 58 -72 20 -22 37 -42 37 -44 0 -3 18 -23 40
-45 22 -22 40 -44 40 -49 0 -4 9 -10 20 -13 11 -3 20 -12 20 -21 0 -9 5 -16
12 -16 12 0 16 -4 84 -70 22 -22 44 -40 48 -40 4 0 16 -9 27 -19 12 -11 49
-36 83 -57 33 -21 63 -41 66 -44 13 -17 80 -45 80 -33 0 12 -24 45 -61 84 -22
23 -48 54 -57 68 -9 14 -22 30 -29 34 -7 4 -13 12 -13 17 0 5 -12 22 -27 38
-32 34 -93 116 -93 125 0 3 -11 17 -24 30 -13 14 -36 47 -49 74 -14 27 -47 82
-74 123 -45 68 -77 129 -84 155 -1 6 -9 16 -16 23 -7 7 -13 22 -13 32 0 10 -4
20 -9 22 -7 3 -52 92 -104 208 -23 53 -45 112 -52 145 -6 27 -20 64 -46 120
-6 11 -11 31 -13 45 -1 14 -8 38 -14 53 -7 16 -12 34 -12 41 0 6 -4 16 -9 21
-5 6 -12 29 -14 52 -3 23 -8 47 -12 53 -4 6 -9 34 -12 63 -2 29 -9 77 -13 107
-13 83 -2 322 17 370 3 8 8 24 10 35 2 11 6 27 10 35 3 8 8 26 10 39 2 14 13
31 24 39 10 7 19 23 19 35 0 26 55 97 76 97 8 0 14 6 14 13 0 18 32 43 66 51
16 3 34 8 40 9 7 2 18 8 26 15 12 10 47 12 172 12 39 0 96 -21 89 -33 -3 -6
-1 -7 5 -3 16 10 84 -34 78 -51 -3 -8 -1 -11 4 -8 13 8 63 -47 88 -99 46 -91
48 -309 4 -343 -9 -7 -13 -13 -9 -13 4 0 -2 -18 -13 -40 -11 -22 -25 -40 -30
-40 -6 0 -10 -4 -10 -10 0 -16 -61 -70 -87 -76 -13 -4 -23 -9 -23 -13 0 -23
-174 -37 -188 -15 -4 6 -23 14 -42 18 -40 7 -110 76 -110 108 0 12 -8 26 -17
33 -14 10 -16 28 -15 100 1 74 4 91 22 107 11 10 20 25 20 32 0 15 69 66 89
66 7 0 10 4 6 9 -3 5 22 10 56 10 56 0 65 -3 95 -32 30 -28 34 -37 34 -82 0
-34 -7 -58 -20 -75 -19 -24 -21 -22 -23 18 -1 19 -44 61 -64 63 -33 4 -40 3
-69 -8 -44 -15 -62 -57 -61 -139 0 -57 3 -67 19 -72 13 -3 17 -10 13 -21 -3
-8 -3 -12 1 -8 4 4 17 1 29 -7 23 -15 64 -21 127 -18 29 2 47 12 90 55 75 73
100 128 99 223 0 73 -17 144 -33 144 -4 0 -8 5 -8 11 0 13 -76 89 -89 89 -5 0
-11 4 -13 9 -4 11 -182 29 -199 19 -8 -4 -32 -15 -54 -25 -84 -37 -167 -155
-188 -268 -11 -63 -15 -195 -6 -215 4 -8 9 -29 12 -47 4 -28 33 -90 47 -103 3
-3 16 -19 28 -36 18 -26 102 -78 122 -76 3 0 12 -6 22 -14 12 -12 42 -16 120
-16 115 -1 157 4 210 26 19 8 39 12 43 8 5 -4 5 -1 1 6 -5 8 -1 12 11 12 36 0
155 130 183 200 6 14 15 34 21 45 5 11 11 32 13 46 1 13 6 30 9 37 14 21 10
274 -4 322 -22 74 -73 151 -146 220 -65 60 -141 110 -170 110 -7 0 -13 5 -13
11 0 5 -4 8 -9 4 -5 -3 -12 -1 -16 4 -3 6 -12 8 -20 4 -8 -3 -15 -1 -15 4 0 8
-152 17 -161 9z"/>
<path d="M2813 3185 c-29 -20 -49 -86 -52 -165 -2 -83 20 -131 66 -142 69 -18
108 26 120 131 8 82 -9 140 -51 169 -38 26 -54 27 -83 7z"/>
<path d="M3042 3080 c-35 -15 -55 -74 -48 -143 9 -87 28 -117 77 -117 40 0 62
32 67 99 5 66 -9 117 -39 149 -22 24 -24 25 -57 12z"/>
<path d="M3228 2908 c-13 -13 -25 -22 -28 -21 -13 4 1 -129 16 -152 16 -25 47
-32 73 -16 17 11 33 97 25 136 -6 30 -40 75 -56 75 -4 0 -18 -10 -30 -22z"/>
<path d="M2610 2789 c-41 -3 -101 -15 -132 -26 -36 -12 -62 -16 -72 -11 -12 7
-14 5 -10 -6 3 -9 -3 -17 -17 -21 -34 -11 -149 -117 -149 -138 0 -4 -5 -5 -12
-1 -6 4 -8 3 -5 -3 3 -5 -2 -23 -12 -39 -38 -64 -56 -145 -56 -259 0 -95 3
-116 23 -152 12 -23 22 -46 22 -52 0 -7 61 -78 97 -114 42 -40 78 -67 96 -72
12 -4 59 -24 104 -46 44 -21 84 -39 87 -39 3 0 39 -20 79 -45 82 -51 160 -125
140 -132 -7 -3 -13 -9 -13 -14 0 -4 6 -6 14 -3 23 9 63 -38 90 -103 14 -34 26
-71 26 -81 0 -10 5 -23 12 -30 13 -13 17 -327 4 -339 -4 -4 -11 -1 -16 7 -8
13 -10 13 -10 -1 0 -8 6 -21 12 -27 9 -9 10 -15 2 -20 -7 -4 -14 -27 -16 -52
-10 -94 -125 -371 -193 -465 -12 -16 -25 -41 -28 -55 -3 -14 -14 -34 -24 -46
-23 -25 -53 -74 -60 -96 -3 -10 -9 -18 -13 -18 -4 0 -10 -10 -14 -23 -3 -13
-17 -36 -31 -51 -14 -15 -34 -44 -45 -64 -10 -20 -33 -53 -50 -72 -40 -45 -54
-70 -40 -70 27 0 64 33 220 189 150 151 214 221 282 305 13 16 32 39 43 51 11
12 29 37 39 56 11 19 22 36 25 39 19 17 60 85 124 206 9 19 22 34 28 34 5 0 8
4 5 9 -3 5 8 40 26 78 17 37 32 74 34 81 1 8 6 21 10 30 4 9 9 26 11 37 2 10
7 22 11 25 4 3 8 14 10 25 2 11 10 45 19 75 9 30 16 58 15 63 -1 4 2 7 6 7 5
0 9 6 9 13 1 20 13 87 30 167 8 41 17 89 19 105 3 17 9 59 15 95 21 139 12
445 -16 527 -8 23 -16 52 -19 65 -2 13 -11 40 -19 61 -9 20 -13 37 -9 37 4 0
2 4 -3 8 -6 4 -19 25 -30 47 -69 137 -160 228 -287 287 -21 9 -38 21 -38 25 0
4 -12 9 -27 9 -16 1 -39 4 -53 8 -63 17 -170 23 -270 15z m343 -166 c20 -9 37
-20 37 -25 0 -4 7 -8 14 -8 8 0 27 -15 41 -34 20 -27 26 -44 23 -73 -6 -56
-38 -68 -133 -49 -11 3 -23 5 -26 5 -3 1 -14 9 -25 19 -10 9 -31 23 -46 31
-16 8 -28 20 -28 28 0 7 -6 13 -14 13 -18 0 -30 64 -16 89 17 33 100 35 173 4z"/>
<path d="M1280 2130 c0 -5 7 -10 15 -10 8 0 15 5 15 10 0 6 -7 10 -15 10 -8 0
-15 -4 -15 -10z"/>
<path d="M248 13 c6 -2 18 -2 25 0 6 3 1 5 -13 5 -14 0 -19 -2 -12 -5z"/>
</g>
</svg>
