<?xml version="1.0" standalone="no"?>
<!DOCTYPE svg PUBLIC "-//W3C//DTD SVG 20010904//EN"
 "http://www.w3.org/TR/2001/REC-SVG-20010904/DTD/svg10.dtd">
<svg version="1.0" xmlns="http://www.w3.org/2000/svg"
 width="260.000000pt" height="260.000000pt" viewBox="0 0 260.000000 260.000000"
 preserveAspectRatio="xMidYMid meet">
<metadata>
Created by potrace 1.11, written by Peter Selinger 2001-2013
</metadata>
<g transform="translate(0.000000,260.000000) scale(0.100000,-0.100000)"
fill="#000000" stroke="none">
<path d="M0 1300 l0 -1300 1300 0 1300 0 0 1300 0 1300 -1300 0 -1300 0 0
-1300z m1760 1024 c6 -6 10 -31 8 -55 l-3 -44 -88 -3 c-65 -2 -89 -7 -93 -17
-3 -8 8 -51 24 -97 39 -106 239 -647 264 -713 11 -27 29 -77 42 -110 13 -33
37 -98 55 -145 17 -47 38 -99 46 -115 7 -17 28 -68 45 -115 17 -47 39 -101 48
-120 l17 -35 93 -3 c90 -3 92 -2 104 23 6 14 15 25 20 25 4 0 8 9 8 19 0 26
10 51 21 51 16 0 10 -60 -6 -66 -8 -4 -15 -15 -15 -26 0 -25 -40 -110 -57
-121 -7 -4 -13 -14 -13 -21 0 -6 -16 -29 -35 -50 -19 -21 -35 -42 -35 -47 0
-5 -7 -9 -15 -9 -8 0 -15 -5 -15 -11 0 -13 -116 -129 -129 -129 -5 0 -11 -7
-15 -15 -3 -8 -12 -15 -19 -15 -8 0 -22 -9 -32 -20 -10 -11 -24 -20 -30 -20
-7 0 -15 -7 -19 -15 -3 -8 -14 -15 -24 -15 -10 0 -27 -9 -37 -20 -10 -11 -28
-20 -40 -20 -13 0 -25 -7 -29 -15 -3 -9 -18 -15 -35 -15 -16 0 -31 -6 -35 -15
-4 -11 -20 -15 -58 -15 -58 1 -50 13 15 24 20 4 37 11 37 16 0 5 15 12 34 16
19 3 37 12 40 20 3 8 14 14 24 14 10 0 29 9 42 20 13 11 31 20 42 20 10 0 18
3 18 8 0 4 27 28 60 52 96 72 175 149 163 161 -6 6 -155 12 -390 16 -368 6
-381 6 -390 -13 -5 -11 -6 -103 -3 -209 l5 -190 60 -5 60 -6 -50 -9 c-68 -12
-246 -12 -265 0 -12 8 -9 11 15 15 l30 5 5 194 c3 128 1 199 -6 208 -8 13 -81
16 -439 19 l-429 5 -48 69 c-51 74 -64 119 -29 100 22 -11 170 -14 187 -2 17
12 41 60 89 187 43 110 117 300 150 385 8 19 28 73 45 120 86 237 192 519 205
547 8 17 15 37 15 45 0 8 7 23 15 34 8 10 15 26 15 34 0 8 6 26 13 40 41 78
29 95 -63 92 -45 -2 -77 1 -86 9 -18 15 -18 73 -1 91 18 17 880 19 897 2z
m707 -1051 c-3 -10 -5 -4 -5 12 0 17 2 24 5 18 2 -7 2 -21 0 -30z m-21 -227
c-10 -55 -30 -45 -22 10 3 26 6 56 7 68 1 16 4 13 11 -11 6 -17 7 -48 4 -67z
m-45 -159 c-13 -13 -15 50 -3 80 5 13 8 5 10 -26 2 -24 -2 -49 -7 -54z m-771
-716 c0 -11 -50 -21 -101 -21 -40 0 -53 15 -21 23 32 8 122 7 122 -2z"/>
<path d="M1172 2212 c-10 -9 -26 -35 -35 -57 -25 -65 -92 -240 -147 -390 -29
-77 -63 -169 -77 -205 -41 -110 -46 -128 -40 -144 6 -14 30 -16 170 -16 115 0
168 4 180 13 16 11 17 44 15 406 l-3 394 -22 8 c-16 6 -28 3 -41 -9z"/>
<path d="M1364 2209 c-4 -7 -6 -186 -5 -398 2 -339 4 -387 18 -398 17 -13 319
-13 340 0 6 4 8 17 5 30 -9 30 -211 574 -227 612 -7 17 -23 57 -36 90 -12 33
-27 63 -33 67 -17 12 -54 9 -62 -3z"/>
<path d="M822 1293 c-11 -10 -31 -49 -46 -88 -14 -38 -31 -83 -37 -100 -7 -16
-20 -50 -29 -75 -9 -25 -45 -118 -79 -208 -34 -90 -61 -171 -59 -180 3 -15 31
-16 323 -13 176 1 324 6 328 11 5 4 11 151 14 325 5 300 5 319 -13 332 -13 10
-64 13 -200 13 -159 0 -184 -2 -202 -17z"/>
<path d="M1370 1296 c-12 -12 -13 -636 -1 -654 6 -11 70 -13 322 -10 l314 3 3
24 c2 13 -3 40 -11 60 -14 33 -119 308 -181 477 -15 39 -32 78 -39 87 -10 13
-44 16 -205 19 -114 2 -197 -1 -202 -6z"/>
</g>
</svg>
